<svg width="30" height="32" viewBox="0 0 30 32" fill="none" xmlns="http://www.w3.org/2000/svg">
<path d="M29.3 16.0973C29.3 7.20755 22.8524 0 14.9 0C6.9476 0 0.5 7.20755 0.5 16.0973C0.5 24.1325 5.7656 30.7914 12.65 31.9987V20.7507H8.9936V16.0959H12.65V12.5519C12.65 8.51813 14.8004 6.28866 18.0896 6.28866C19.664 6.28866 21.3128 6.60391 21.3128 6.60391V10.5652H19.496C17.7068 10.5652 17.1488 11.806 17.1488 13.0791V16.0973H21.1424L20.504 20.752H17.1488V32C24.0344 30.7914 29.3 24.1312 29.3 16.0973Z" fill="url(#paint0_linear_8_301)"/>
<defs>
<linearGradient id="paint0_linear_8_301" x1="14.9" y1="0" x2="14.9" y2="32" gradientUnits="userSpaceOnUse">
<stop stop-color="#FF5B00"/>
<stop offset="1" stop-color="#FF7100"/>
</linearGradient>
</defs>
</svg>
