<svg width="30" height="32" viewBox="0 0 30 32" fill="none" xmlns="http://www.w3.org/2000/svg">
<g clip-path="url(#clip0_8_299)">
<path d="M14.6998 0C10.7878 0 10.2994 0.02 8.7634 0.096C7.2298 0.176 6.1858 0.444 5.2678 0.84C4.321 1.248 3.51701 1.796 2.7166 2.68533C1.9162 3.57467 1.42181 4.46667 1.0558 5.52C0.699405 6.54 0.457005 7.7 0.386205 9.404C0.314205 11.1107 0.299805 11.6533 0.299805 16C0.299805 20.3467 0.317805 20.8893 0.386205 22.596C0.458205 24.2987 0.699405 25.46 1.0558 26.48C1.423 27.5307 1.9162 28.4253 2.7166 29.3147C3.51701 30.2027 4.31981 30.7533 5.2678 31.16C6.187 31.5547 7.231 31.8253 8.7634 31.904C10.2994 31.984 10.7878 32 14.6998 32C18.6118 32 19.1002 31.98 20.6362 31.904C22.1686 31.824 23.2138 31.5547 24.1318 31.16C25.0774 30.752 25.8826 30.2027 26.683 29.3147C27.4822 28.4253 27.9778 27.5347 28.3438 26.48C28.699 25.46 28.9426 24.2987 29.0134 22.596C29.0854 20.8893 29.0998 20.3467 29.0998 16C29.0998 11.6533 29.0818 11.1107 29.0134 9.404C28.9414 7.70133 28.699 6.53867 28.3438 5.52C27.9766 4.468 27.4822 3.57467 26.683 2.68533C25.8826 1.796 25.081 1.24667 24.1318 0.84C23.2138 0.444 22.1686 0.174667 20.6362 0.096C19.1002 0.016 18.6118 0 14.6998 0ZM14.6998 2.88C18.5434 2.88 19.0018 2.90133 20.5198 2.97467C21.9238 3.048 22.6858 3.30667 23.1922 3.528C23.8666 3.81733 24.3442 4.164 24.8506 4.72267C25.3534 5.28267 25.6654 5.81467 25.9258 6.564C26.1226 7.12667 26.3578 7.97333 26.4214 9.53333C26.4898 11.2213 26.5054 11.728 26.5054 16C26.5054 20.272 26.4874 20.78 26.4166 22.4667C26.3434 24.0267 26.1094 24.8733 25.9114 25.436C25.6426 26.1853 25.3366 26.716 24.8326 27.2787C24.3298 27.8373 23.8438 28.184 23.1766 28.4733C22.6726 28.692 21.8986 28.9533 20.4946 29.024C18.9658 29.1 18.5158 29.1173 14.6638 29.1173C10.8106 29.1173 10.3606 29.0973 8.833 29.0187C7.4278 28.9373 6.6538 28.6773 6.1498 28.4573C5.467 28.1587 4.9978 27.8187 4.495 27.2587C3.9898 26.7 3.667 26.16 3.415 25.4187C3.217 24.8587 2.98421 23.9987 2.911 22.4387C2.857 20.7587 2.8378 20.24 2.8378 15.98C2.8378 11.7187 2.857 11.1987 2.911 9.49867C2.98421 7.93867 3.217 7.08 3.415 6.52C3.667 5.76 3.9898 5.24 4.495 4.67867C4.9978 4.12 5.467 3.76 6.1498 3.48133C6.6538 3.26 7.411 3 8.815 2.92C10.345 2.86 10.795 2.84 14.6458 2.84L14.6998 2.88ZM14.6998 7.784C10.6138 7.784 7.3054 11.464 7.3054 16C7.3054 20.54 10.6174 24.216 14.6998 24.216C18.7858 24.216 22.0942 20.536 22.0942 16C22.0942 11.46 18.7822 7.784 14.6998 7.784ZM14.6998 21.3333C12.0478 21.3333 9.89983 18.9467 9.89983 16C9.89983 13.0533 12.0478 10.6667 14.6998 10.6667C17.3518 10.6667 19.4998 13.0533 19.4998 16C19.4998 18.9467 17.3518 21.3333 14.6998 21.3333ZM24.115 7.46C24.115 8.52 23.3398 9.38 22.387 9.38C21.433 9.38 20.659 8.51867 20.659 7.46C20.659 6.40133 21.4342 5.54133 22.387 5.54133C23.3386 5.54 24.115 6.40133 24.115 7.46Z" fill="url(#paint0_linear_8_299)"/>
</g>
<defs>
<linearGradient id="paint0_linear_8_299" x1="14.6998" y1="0" x2="14.6998" y2="32" gradientUnits="userSpaceOnUse">
<stop stop-color="#FF5A00"/>
<stop offset="1" stop-color="#FF7100"/>
</linearGradient>
<clipPath id="clip0_8_299">
<rect width="28.8" height="32" fill="white" transform="translate(0.299805)"/>
</clipPath>
</defs>
</svg>
