<svg width="19" height="15" viewBox="0 0 19 15" fill="none" xmlns="http://www.w3.org/2000/svg">
<path d="M16.3007 0H1.89945C0.91013 0 0.108738 0.843708 0.108738 1.87528L0.100098 13.1247C0.100098 14.1563 0.91013 15 1.89945 15H16.3007C17.2901 15 18.1001 14.1563 18.1001 13.1247V1.87528C18.1001 0.843708 17.2901 0 16.3007 0ZM15.94 3.98455L9.57748 8.12884C9.43393 8.2209 9.26867 8.26965 9.1001 8.26965C8.93153 8.26965 8.76626 8.2209 8.62272 8.12884L2.26018 3.98455C2.17119 3.93112 2.09345 3.85957 2.03159 3.77416C1.96973 3.68875 1.92503 3.59123 1.90015 3.48743C1.87527 3.38363 1.87072 3.27567 1.88678 3.17C1.90284 3.06433 1.93917 2.96311 1.99361 2.87239C2.04805 2.78167 2.11948 2.7033 2.20364 2.64196C2.28779 2.58062 2.38295 2.53757 2.48344 2.51538C2.58392 2.49318 2.68766 2.49231 2.78848 2.51279C2.88929 2.53328 2.98511 2.57471 3.07022 2.63462L9.1001 6.56292L15.13 2.63462C15.2151 2.57471 15.3109 2.53328 15.4117 2.51279C15.5125 2.49231 15.6163 2.49318 15.7168 2.51538C15.8172 2.53757 15.9124 2.58062 15.9966 2.64196C16.0807 2.7033 16.1521 2.78167 16.2066 2.87239C16.261 2.96311 16.2974 3.06433 16.3134 3.17C16.3295 3.27567 16.3249 3.38363 16.3 3.48743C16.2752 3.59123 16.2305 3.68875 16.1686 3.77416C16.1067 3.85957 16.029 3.93112 15.94 3.98455V3.98455Z" fill="url(#paint0_linear_8_296)"/>
<defs>
<linearGradient id="paint0_linear_8_296" x1="9.1001" y1="0" x2="9.1001" y2="15" gradientUnits="userSpaceOnUse">
<stop stop-color="#FF5D01"/>
<stop offset="1" stop-color="#FF6E01"/>
</linearGradient>
</defs>
</svg>
