<svg width="19" height="20" viewBox="0 0 19 20" fill="none" xmlns="http://www.w3.org/2000/svg">
<path d="M9.1001 0C4.37533 0 0.100098 3.27255 0.100098 8.33446C0.100098 11.5668 2.85666 15.3687 8.35763 19.7488C8.56551 19.9108 8.83093 20 9.1055 20C9.38006 20 9.64548 19.9108 9.85336 19.7488C15.3435 15.3687 18.1001 11.5668 18.1001 8.33446C18.1001 3.27255 13.8249 0 9.1001 0ZM9.1001 10.1641C7.86221 10.1641 6.84976 9.24926 6.84976 8.13076C6.84976 7.01227 7.86221 6.09746 9.1001 6.09746C10.338 6.09746 11.3504 7.01227 11.3504 8.13076C11.3504 9.24926 10.338 10.1641 9.1001 10.1641Z" fill="url(#paint0_linear_8_303)"/>
<defs>
<linearGradient id="paint0_linear_8_303" x1="9.1001" y1="0" x2="9.1001" y2="20" gradientUnits="userSpaceOnUse">
<stop stop-color="#FF5E01"/>
<stop offset="1" stop-color="#FF7001"/>
</linearGradient>
</defs>
</svg>
