<svg width="16" height="18" viewBox="0 0 16 18" fill="none" xmlns="http://www.w3.org/2000/svg">
<path d="M7.6001 0C3.66279 0 0.100098 2.9453 0.100098 7.50101C0.100098 10.4101 2.39723 13.8318 6.98138 17.7739C7.15461 17.9197 7.37579 18 7.6046 18C7.8334 18 8.05459 17.9197 8.22782 17.7739C12.803 13.8318 15.1001 10.4101 15.1001 7.50101C15.1001 2.9453 11.5374 0 7.6001 0ZM7.6001 9.14766C6.56852 9.14766 5.72482 8.32434 5.72482 7.31769C5.72482 6.31104 6.56852 5.48772 7.6001 5.48772C8.63167 5.48772 9.47538 6.31104 9.47538 7.31769C9.47538 8.32434 8.63167 9.14766 7.6001 9.14766Z" fill="url(#paint0_linear_8_303)"/>
<defs>
<linearGradient id="paint0_linear_8_303" x1="7.6001" y1="0" x2="7.6001" y2="18" gradientUnits="userSpaceOnUse">
<stop stop-color="#FF5E01"/>
<stop offset="1" stop-color="#FF7001"/>
</linearGradient>
</defs>
</svg>
