<svg width="19" height="18" viewBox="0 0 19 18" fill="none" xmlns="http://www.w3.org/2000/svg">
<path d="M16.3361 9.2065L13.7907 8.98826C13.4915 8.96197 13.1883 8.98685 12.9039 9.06104C12.6194 9.13523 12.361 9.2568 12.1482 9.41662L10.3037 10.7991C7.45966 9.7141 5.14795 7.98032 3.70132 5.84728L5.55422 4.45671C5.98588 4.13386 6.1963 3.68296 6.12536 3.22394L5.83558 1.33016C5.77863 0.963494 5.5439 0.625337 5.17607 0.38006C4.80824 0.134783 4.33299 -0.00048628 3.8408 1.3136e-06H2.10814C0.975479 1.3136e-06 0.034 0.707014 0.103739 1.55561C0.6352 7.97373 7.47806 13.0987 16.0259 13.4973C17.1574 13.5496 18.1001 12.8435 18.1001 11.994V10.6945C18.1026 10.3269 17.9238 9.97169 17.5982 9.69702C17.2726 9.42235 16.8231 9.24765 16.3361 9.2065V9.2065Z" fill="url(#paint0_linear_8_293)"/>
<defs>
<linearGradient id="paint0_linear_8_293" x1="9.1001" y1="0" x2="9.1001" y2="13.5" gradientUnits="userSpaceOnUse">
<stop stop-color="#FF5E01"/>
<stop offset="1" stop-color="#FF6E01"/>
</linearGradient>
</defs>
</svg>
